<svg xmlns="http://www.w3.org/2000/svg" width="214" height="24" fill="none">
  <path fill="#111" d="M5.914 18.216c-.684 0-1.35-.066-1.998-.198a9.023 9.023 0 0 1-1.746-.504 7.022 7.022 0 0 1-1.314-.702l1.188-2.25c.396.276.816.516 1.26.72.456.192.93.342 1.422.45a7.69 7.69 0 0 0 1.476.144c.54 0 1.002-.06 1.386-.18.396-.12.696-.288.9-.504.216-.216.324-.48.324-.792a.853.853 0 0 0-.342-.702c-.228-.18-.528-.33-.9-.45-.36-.132-.762-.258-1.206-.378-.444-.12-.894-.258-1.35-.414a6.478 6.478 0 0 1-1.224-.612 3.051 3.051 0 0 1-.882-.954c-.228-.384-.342-.864-.342-1.44 0-.864.234-1.614.702-2.25.48-.636 1.152-1.128 2.016-1.476.864-.36 1.878-.54 3.042-.54.852 0 1.656.096 2.412.288.756.18 1.404.444 1.944.792l-1.098 2.232a5.242 5.242 0 0 0-1.602-.72 6.585 6.585 0 0 0-1.818-.252c-.564 0-1.05.066-1.458.198-.396.132-.702.318-.918.558a1.152 1.152 0 0 0-.306.792c0 .3.108.546.324.738.228.18.528.336.9.468.372.12.78.24 1.224.36.444.12.888.258 1.332.414.444.156.852.354 1.224.594s.672.546.9.918c.228.36.342.816.342 1.368 0 .864-.24 1.62-.72 2.268-.48.636-1.158 1.134-2.034 1.494-.864.348-1.884.522-3.06.522ZM12.46 18l2.52-12.6h2.934L15.395 18H12.46Zm5.367 0 2.52-12.6h2.376l3.582 8.928-1.26-.018 6.984-8.91h2.502L32.029 18h-2.736l1.674-8.442h.558l-5.562 7.11h-1.296l-2.97-7.128.54.054L20.563 18h-2.736Zm16.651 0 2.52-12.6h5.094c1.572 0 2.784.348 3.636 1.044.864.684 1.296 1.644 1.296 2.88 0 1.056-.246 1.98-.738 2.772-.492.78-1.2 1.38-2.124 1.8-.912.42-1.998.63-3.258.63h-4.086l1.548-1.332L37.412 18h-2.934Zm3.816-4.464-1.026-1.386h3.762c.96 0 1.704-.216 2.232-.648.54-.444.81-1.086.81-1.926 0-.612-.204-1.062-.612-1.35-.408-.3-.984-.45-1.728-.45h-3.546l1.548-1.422-1.44 7.182ZM46.946 18l2.52-12.6H52.4l-2.052 10.224h6.318L56.18 18h-9.234ZM59.1 18l1.026-5.184.325 1.836L56.741 5.4h2.916l2.826 7.074-1.764.018L66.427 5.4h3.005l-7.38 9.27.99-1.854L62.016 18H59.1Zm20.052.216a7.745 7.745 0 0 1-2.718-.468 6.498 6.498 0 0 1-2.16-1.368 6.423 6.423 0 0 1-1.44-2.07c-.336-.792-.504-1.662-.504-2.61s.168-1.818.504-2.61a6.423 6.423 0 0 1 1.44-2.07 6.462 6.462 0 0 1 2.178-1.35c.828-.324 1.734-.486 2.718-.486 1.092 0 2.076.192 2.952.576a5.675 5.675 0 0 1 2.232 1.656l-1.872 1.728c-.432-.492-.912-.858-1.44-1.098a3.96 3.96 0 0 0-1.728-.378 4.42 4.42 0 0 0-1.62.288 3.672 3.672 0 0 0-1.278.828c-.36.36-.642.786-.846 1.278a4.471 4.471 0 0 0-.288 1.638c0 .6.096 1.146.288 1.638.204.492.486.918.846 1.278s.786.636 1.278.828a4.42 4.42 0 0 0 1.62.288c.624 0 1.2-.12 1.728-.36.528-.252 1.008-.63 1.44-1.134l1.872 1.728a5.835 5.835 0 0 1-2.232 1.674c-.876.384-1.866.576-2.97.576ZM94.423 5.4h2.916V18h-2.916V5.4ZM88.7 18h-2.916V5.4H88.7V18Zm5.94-5.166h-6.156v-2.466h6.156v2.466Zm11.261 5.382c-.996 0-1.92-.162-2.772-.486a6.658 6.658 0 0 1-2.196-1.368 6.422 6.422 0 0 1-1.44-2.07 6.569 6.569 0 0 1-.504-2.592c0-.936.168-1.8.505-2.592a6.29 6.29 0 0 1 1.457-2.07 6.658 6.658 0 0 1 2.196-1.368 7.539 7.539 0 0 1 2.736-.486c.996 0 1.908.162 2.736.486.84.324 1.566.78 2.178 1.368a6.292 6.292 0 0 1 1.458 2.07c.348.78.522 1.644.522 2.592a6.5 6.5 0 0 1-.522 2.61 6.292 6.292 0 0 1-1.458 2.07 6.608 6.608 0 0 1-2.178 1.35c-.828.324-1.734.486-2.718.486Zm-.018-2.484c.564 0 1.08-.096 1.548-.288a3.672 3.672 0 0 0 2.088-2.106 4.238 4.238 0 0 0 .306-1.638c0-.6-.102-1.146-.306-1.638a3.672 3.672 0 0 0-.828-1.278 3.527 3.527 0 0 0-1.242-.828 4.178 4.178 0 0 0-1.566-.288c-.564 0-1.086.096-1.566.288a3.757 3.757 0 0 0-1.242.828c-.36.36-.642.786-.846 1.278a4.471 4.471 0 0 0-.288 1.638c0 .588.096 1.134.288 1.638.204.492.48.918.828 1.278.36.36.78.636 1.26.828.48.192 1.002.288 1.566.288Zm14.576 2.484a7.745 7.745 0 0 1-2.718-.468 6.498 6.498 0 0 1-2.16-1.368 6.423 6.423 0 0 1-1.44-2.07c-.336-.792-.504-1.662-.504-2.61s.168-1.818.504-2.61a6.423 6.423 0 0 1 1.44-2.07 6.462 6.462 0 0 1 2.178-1.35c.828-.324 1.734-.486 2.718-.486 1.092 0 2.076.192 2.952.576a5.675 5.675 0 0 1 2.232 1.656l-1.872 1.728c-.432-.492-.912-.858-1.44-1.098a3.96 3.96 0 0 0-1.728-.378 4.42 4.42 0 0 0-1.62.288 3.672 3.672 0 0 0-1.278.828c-.36.36-.642.786-.846 1.278a4.471 4.471 0 0 0-.288 1.638c0 .6.096 1.146.288 1.638.204.492.486.918.846 1.278s.786.636 1.278.828a4.42 4.42 0 0 0 1.62.288c.624 0 1.2-.12 1.728-.36.528-.252 1.008-.63 1.44-1.134l1.872 1.728a5.835 5.835 0 0 1-2.232 1.674c-.876.384-1.866.576-2.97.576Zm12.487 0c-.996 0-1.92-.162-2.772-.486a6.658 6.658 0 0 1-2.196-1.368 6.423 6.423 0 0 1-1.44-2.07 6.569 6.569 0 0 1-.504-2.592c0-.936.168-1.8.504-2.592a6.292 6.292 0 0 1 1.458-2.07 6.658 6.658 0 0 1 2.196-1.368 7.539 7.539 0 0 1 2.736-.486c.996 0 1.908.162 2.736.486.84.324 1.566.78 2.178 1.368a6.292 6.292 0 0 1 1.458 2.07c.348.78.522 1.644.522 2.592a6.5 6.5 0 0 1-.522 2.61 6.292 6.292 0 0 1-1.458 2.07 6.608 6.608 0 0 1-2.178 1.35c-.828.324-1.734.486-2.718.486Zm-.018-2.484c.564 0 1.08-.096 1.548-.288a3.672 3.672 0 0 0 2.088-2.106 4.238 4.238 0 0 0 .306-1.638c0-.6-.102-1.146-.306-1.638a3.672 3.672 0 0 0-.828-1.278 3.527 3.527 0 0 0-1.242-.828 4.178 4.178 0 0 0-1.566-.288c-.564 0-1.086.096-1.566.288a3.757 3.757 0 0 0-1.242.828c-.36.36-.642.786-.846 1.278a4.471 4.471 0 0 0-.288 1.638c0 .588.096 1.134.288 1.638.204.492.48.918.828 1.278.36.36.78.636 1.26.828.48.192 1.002.288 1.566.288ZM141.473 18V5.4h2.916v10.224h6.318V18h-9.234Zm8.738 0 5.616-12.6h2.88l5.634 12.6h-3.06l-4.608-11.124h1.152L153.199 18h-2.988Zm2.808-2.7.774-2.214h6.48l.792 2.214h-8.046Zm14.066 2.7V7.776h-4.032V5.4h10.98v2.376h-4.032V18h-2.916Zm10.659-7.524h6.066v2.268h-6.066v-2.268Zm.216 5.184h6.858V18h-9.756V5.4h9.522v2.34h-6.624v7.92Z"/>
  <path fill="#FCF1E0" d="m192.958 15.057 8.083-13.068.48-.506 6.176 4.118.043 2.486 1.507 2.46-6.66 10.557-9.629-6.047Z"/>
  <path stroke="#FD9222" stroke-linecap="round" stroke-linejoin="round" stroke-width="2" d="m206.226 17.91-10.639-6.648m2.934-4.813 10.639 6.648m-11.188 6.301 8.802-14.437m3.608 6.13c-2.28-1.424-3.175-2.537-1.708-4.943l-7.219-4.512-8.802 14.438 10.639 6.648 7.09-11.63Z"/>
</svg>
