<svg xmlns="http://www.w3.org/2000/svg" aria-hidden="true" style="position:absolute;width:0;height:0;overflow:hidden">
  <defs>
    <symbol id="icon-v-sign" viewBox="0 0 32 32">
      <path fill="#fff" d="M16 32c8.837 0 16-7.163 16-16S24.837 0 16 0 0 7.163 0 16s7.163 16 16 16z" style="fill:var(--color1, #fff)"/>
      <path fill="#fd9222" d="M16.548 17.081a.777.777 0 0 1-.845.169.777.777 0 0 1-.251-.169l-3.535-3.543a.777.777 0 0 0-.845-.169.777.777 0 0 0-.476.713c0 .204.081.4.225.544l3.543 3.543a2.314 2.314 0 0 0 3.272 0l3.543-3.543a.771.771 0 0 0-1.095-1.088l-3.535 3.543z" style="fill:var(--color2, #fd9222)"/>
    </symbol>
    <symbol id="icon-v-sign-aktive" viewBox="0 0 32 32">
    <path fill="#fd9222" style="fill: var(--color1, #fd9222)" d="M16 32c8.837 0 16-7.163 16-16s-7.163-16-16-16c-8.837 0-16 7.163-16 16s7.163 16 16 16z"></path>
    <path fill="#fff" style="fill: var(--color2, #fff)" d="M16.548 17.080c-0.14 0.141-0.334 0.228-0.548 0.228s-0.408-0.087-0.548-0.228l-0-0-3.536-3.543c-0.142-0.158-0.348-0.257-0.576-0.257-0.427 0-0.773 0.346-0.773 0.773 0 0.227 0.098 0.43 0.253 0.572l0.001 0.001 3.543 3.544c0.419 0.419 0.998 0.677 1.637 0.677s1.218-0.259 1.637-0.677l3.543-3.544c0.131-0.138 0.212-0.325 0.212-0.532 0-0.426-0.346-0.772-0.772-0.772-0.208 0-0.397 0.082-0.536 0.216l0-0-3.536 3.543z"></path>
    </symbol>
    <symbol id="icon-x-sign" viewBox="0 0 32 32">
      <path fill="#fcf1e0" d="M30.4 15.2c0 8.395-6.805 15.2-15.2 15.2S0 23.595 0 15.2 6.805 0 15.2 0s15.2 6.805 15.2 15.2z" style="fill:var(--color3, #fcf1e0)"/>
      <path fill="none" stroke="#000" stroke-linecap="round" stroke-linejoin="round" stroke-width="1.6" d="m19.6 10.8-8.8 8.8M10.8 10.8l8.8 8.8" style="stroke:var(--color4, #000)"/>
    </symbol>
    <symbol id="icon-chocolate" viewBox="0 0 32 32">
      <path fill="#fcf1e0" d="M3.944 20.076 14.721 2.652l.64-.674 8.236 5.491.056 3.314 2.01 3.28-8.88 14.077-12.839-8.063z" style="fill:var(--color3, #fcf1e0)"/>
      <path fill="none" stroke="#fd9222" stroke-linecap="round" stroke-linejoin="round" stroke-width="2.667" d="M21.635 23.88 7.45 15.016m3.911-6.417 14.185 8.864M10.63 25.864l11.736-19.25m4.81 8.175c-3.04-1.899-4.234-3.384-2.278-6.592l-9.626-6.015-11.736 19.25 14.186 8.864 9.454-15.507z" style="stroke:var(--color2, #fd9222)"/>
    </symbol>
    <symbol id="icon-mob-menu" viewBox="0 0 32 32">
      <path stroke-linecap="round" stroke-linejoin="round" stroke-width="2.5" d="M4 16h24M4 8h24M4 24h24"/>
    </symbol>
    <symbol id="icon-spoon" viewBox="0 0 32 32">
      <path d="M15.451 14.106a5.154 5.154 0 0 1-1.177-3.282c0-4.324 5.181-8.642 10.362-8.642a5.183 5.183 0 0 1 5.181 5.182c0 5.182-4.317 10.364-8.646 10.364a5.15 5.15 0 0 1-3.281-1.177L5.132 29.312a1.73 1.73 0 0 1-2.445-2.445l12.764-12.761z"/>
    </symbol>
    <symbol id="icon-twitter" viewBox="0 0 32 32">
      <path stroke-linecap="round" stroke-linejoin="round" stroke-width="2.667" d="M30.667 4a14.542 14.542 0 0 1-4.187 2.04 5.975 5.975 0 0 0-6.637-1.661A5.981 5.981 0 0 0 16 10.04v1.333c-2.343.061-4.665-.459-6.759-1.513S4.68 6.297 3.333 4.379c0 0-4.667 12.954 7.333 18.287a15.519 15.519 0 0 1-9.333 2.667C13.333 32 28 25.333 28 10a5.966 5.966 0 0 0-.107-1.107A10.288 10.288 0 0 0 30.666 4z"/>
    </symbol>
    <symbol id="icon-instagram" viewBox="0 0 32 32">
      <path stroke-linecap="round" stroke-linejoin="round" stroke-width="2.667" d="M22.667 2.667H9.334a6.667 6.667 0 0 0-6.667 6.667v13.333a6.667 6.667 0 0 0 6.667 6.667h13.333a6.667 6.667 0 0 0 6.667-6.667V9.334a6.667 6.667 0 0 0-6.667-6.667z"/>
      <path stroke-linecap="round" stroke-linejoin="round" stroke-width="2.667" d="M21.334 15.16a5.329 5.329 0 0 1-2.878 5.546 5.338 5.338 0 0 1-6.169-.992 5.33 5.33 0 0 1 1.316-8.505 5.336 5.336 0 0 1 6.228.962 5.328 5.328 0 0 1 1.504 2.989zM23.333 8.667h.013"/>
    </symbol>
    <symbol id="icon-Coin" viewBox="0 0 32 32">
      <path d="M16 2.667c-7.333 0-13.333 6-13.333 13.333s6 13.333 13.333 13.333 13.333-6 13.333-13.333S23.333 2.667 16 2.667zm0 24c-5.867 0-10.667-4.8-10.667-10.667S10.133 5.333 16 5.333 26.667 10.133 26.667 16 21.867 26.667 16 26.667z"/>
      <path d="M17.733 14.667h-3.467c-.667 0-1.2-.533-1.2-1.2s.533-1.2 1.2-1.2h4.933c.8 0 1.333-.533 1.333-1.333s-.533-1.333-1.333-1.333h-1.867v-1.2c0-.8-.533-1.333-1.333-1.333s-1.333.533-1.333 1.333v1.2h-.4c-2.133 0-3.867 1.733-3.867 3.867s1.733 3.867 3.867 3.867h3.333c.667 0 1.2.533 1.2 1.2s-.533 1.2-1.2 1.2h-4.933c-.8 0-1.333.533-1.333 1.333s.533 1.333 1.333 1.333h2v1.2c0 .8.533 1.333 1.333 1.333s1.333-.533 1.333-1.333v-1.2h.4c2.133 0 3.867-1.733 3.867-3.867s-1.733-3.867-3.867-3.867z"/>
    </symbol>
    <symbol id="icon-chocolate-bar" viewBox="0 0 32 32">
      <path d="m13.822 2.413 7.527 7.536.08-.08a.856.856 0 0 1 1.184-.013l.873.873c.305.305.315.77.083 1.094l-.004.007-.143.192 6.16 6.16c.55.55.55 1.43 0 1.98l-9.43 9.43c-.55.55-1.43.55-1.98 0l-4.447-4.447a.853.853 0 0 1-.612.317.842.842 0 0 1-.644-.246l-2.6-2.6a.856.856 0 0 1-.013-1.184l.006-.007.077-.076-7.527-7.527c-.55-.55-.55-1.43 0-1.98l9.43-9.43c.55-.55 1.43-.55 1.98 0v.001zm6.582 8.48-1.756-1.755a.59.59 0 0 0-.85 0l-3.58 3.58a.621.621 0 0 0-.179.43.602.602 0 0 0 .179.43l1.749 1.749.61-.61-1.565-1.565 3.21-3.22 1.569 1.574.613-.613zm-5.076 5.072-1.754-1.754a.59.59 0 0 0-.85 0l-3.59 3.59c-.24.23-.24.61 0 .85l1.752 1.752.616-.616-1.57-1.564 3.22-3.21 1.564 1.563.612-.611zM8.822 8.193l3.58 3.58c.24.24.62.24.85-.01l3.58-3.58a.57.57 0 0 0 .18-.42h.01c0-.15-.06-.31-.18-.43l-3.58-3.58a.602.602 0 0 0-.86 0l-3.58 3.59c-.24.23-.24.61 0 .85zm-5.07 5.07 3.58 3.58c.24.24.62.24.85 0l3.58-3.58a.578.578 0 0 0 .18-.43h.01c0-.16-.06-.31-.18-.43l-3.58-3.58a.59.59 0 0 0-.85 0l-3.59 3.59c-.24.23-.24.61 0 .85zm6.933 8.754 2.362 2.363 9.636-13.04-.655-.655-11.343 11.332z"/>
      <path d="m13.822 2.413 7.527 7.536.08-.08a.856.856 0 0 1 1.184-.013l.873.873c.305.305.315.77.083 1.094l-.004.007-.143.192 6.16 6.16c.55.55.55 1.43 0 1.98l-9.43 9.43c-.55.55-1.43.55-1.98 0l-4.447-4.447a.853.853 0 0 1-.612.317.842.842 0 0 1-.644-.246l-2.6-2.6a.856.856 0 0 1-.013-1.184l.006-.007.077-.076-7.527-7.527c-.55-.55-.55-1.43 0-1.98l9.43-9.43c.55-.55 1.43-.55 1.98 0v.001zm6.582 8.48-1.756-1.755a.59.59 0 0 0-.85 0l-3.58 3.58a.621.621 0 0 0-.179.43.602.602 0 0 0 .179.43l1.749 1.749.61-.61-1.565-1.565 3.21-3.22 1.569 1.574.613-.613zm-5.076 5.072-1.754-1.754a.59.59 0 0 0-.85 0l-3.59 3.59c-.24.23-.24.61 0 .85l1.752 1.752.616-.616-1.57-1.564 3.22-3.21 1.564 1.563.612-.611zM8.822 8.193l3.58 3.58c.24.24.62.24.85-.01l3.58-3.58a.57.57 0 0 0 .18-.42h.01c0-.15-.06-.31-.18-.43l-3.58-3.58a.602.602 0 0 0-.86 0l-3.58 3.59c-.24.23-.24.61 0 .85zm-5.07 5.07 3.58 3.58c.24.24.62.24.85 0l3.58-3.58a.578.578 0 0 0 .18-.43h.01c0-.16-.06-.31-.18-.43l-3.58-3.58a.59.59 0 0 0-.85 0l-3.59 3.59c-.24.23-.24.61 0 .85zm6.933 8.754 2.362 2.363 9.636-13.04-.655-.655-11.343 11.332z"/>
    </symbol>
    <symbol id="icon-play" viewBox="0 0 32 32">
    <path fill="#fff" style="fill: var(--color1, #fff)" d="M11.886 23.771v-13.714l12.8 6.857-12.8 6.857z"></path>
    </symbol>
    <symbol id="icon-flag" viewBox="0 0 41 32">
     <path fill="#ffd700" style="fill: var(--color1, #ffd700)" d="M40.745 1.354h-40.435v30.092h40.435v-30.092z"></path>
     <path fill="#0057b7" style="fill: var(--color2, #0057b7)" d="M0.311 1.354h40.434v15.045h-40.435v-15.045z"></path>
     </symbol>
     <symbol id="icon-x-close" viewBox="0 0 32 32">
     <path stroke-linejoin="round" stroke-linecap="round" stroke-miterlimit="4" stroke-width="2.2857" d="M24 8l-16 16M8 8l16 16"></path>
     </symbol>
     <symbol id="icon-Mastercard" viewBox="0 0 51 32">
     <path fill="#ed0006" style="fill: var(--color1, #ed0006)" d="M25.6 26.934c-2.529 2.186-5.849 3.518-9.481 3.518-0.005 0-0.011 0-0.016 0h0.001c-8.086 0-14.64-6.592-14.64-14.726 0-8.133 6.554-14.726 14.64-14.726 3.622 0 6.939 1.325 9.496 3.518 2.529-2.186 5.849-3.518 9.481-3.518 0.005 0 0.011 0 0.016 0h-0.001c8.086 0 14.64 6.592 14.64 14.726 0 8.133-6.554 14.726-14.64 14.726-0.005 0-0.010 0-0.015 0-3.631 0-6.952-1.332-9.499-3.534l0.018 0.016z"></path>
     <path fill="#f9a000" style="fill: var(--color2, #f9a000)" d="M25.6 26.934c3.157-2.717 5.144-6.719 5.144-11.184 0-0.008 0-0.017-0-0.025v0.001c0-0.007 0-0.016 0-0.024 0-4.465-1.987-8.466-5.125-11.168l-0.019-0.016c2.529-2.186 5.849-3.518 9.481-3.518 0.005 0 0.011 0 0.016 0h-0.001c8.086 0 14.64 6.592 14.64 14.726 0 8.133-6.554 14.726-14.64 14.726-0.005 0-0.010 0-0.015 0-3.631 0-6.952-1.332-9.499-3.534l0.018 0.016z"></path>
     <path fill="#ff5e00" style="fill: var(--color3, #ff5e00)" d="M25.6 26.934c3.157-2.717 5.144-6.719 5.144-11.184 0-0.008 0-0.017-0-0.025v0.001c0-0.007 0-0.016 0-0.024 0-4.465-1.987-8.466-5.125-11.168l-0.019-0.016c-3.157 2.717-5.144 6.719-5.144 11.184 0 0.008 0 0.017 0 0.025v-0.001c0 0.007-0 0.016-0 0.025 0 4.465 1.987 8.466 5.125 11.167l0.019 0.016z"></path>
     </symbol>
     <symbol id="icon-hero" viewBox="0 0 32 32">
     <path d="M16 32c8.837 0 16-7.163 16-16s-7.163-16-16-16c-8.837 0-16 7.163-16 16s7.163 16 16 16z"></path>
     <path d="M16.548 17.081c-0.072 0.072-0.157 0.13-0.251 0.169s-0.195 0.059-0.297 0.059-0.203-0.020-0.297-0.059c-0.094-0.039-0.179-0.097-0.251-0.169l-3.535-3.543c-0.072-0.072-0.157-0.13-0.251-0.169s-0.195-0.059-0.297-0.059-0.203 0.020-0.297 0.059c-0.094 0.039-0.179 0.097-0.251 0.169-0.144 0.145-0.225 0.34-0.225 0.544s0.081 0.4 0.225 0.544l3.543 3.543c0.434 0.434 1.023 0.677 1.636 0.677s1.202-0.244 1.636-0.677l3.543-3.543c0.143-0.144 0.223-0.338 0.224-0.54 0.001-0.102-0.019-0.202-0.057-0.296s-0.095-0.18-0.167-0.252c-0.072-0.072-0.157-0.13-0.251-0.169s-0.195-0.059-0.297-0.059-0.203 0.020-0.297 0.059c-0.094 0.039-0.179 0.097-0.251 0.169l-3.535 3.543z"></path>
     </symbol>
     <symbol id="icon-hero-vector" viewBox="0 0 56 32">
     <path d="M30.605 21.134c-0.341 0.344-0.746 0.616-1.193 0.803s-0.926 0.282-1.41 0.282-0.963-0.096-1.41-0.282c-0.447-0.186-0.852-0.459-1.193-0.803l-16.793-16.83c-0.341-0.344-0.746-0.616-1.193-0.803s-0.926-0.282-1.41-0.282-0.963 0.096-1.41 0.282c-0.447 0.186-0.852 0.459-1.193 0.803-0.683 0.687-1.066 1.616-1.066 2.585s0.383 1.898 1.066 2.585l16.83 16.83c2.063 2.060 4.858 3.217 7.773 3.217s5.711-1.157 7.773-3.217l16.83-16.83c0.677-0.683 1.059-1.605 1.063-2.567 0.003-0.483-0.090-0.961-0.272-1.408s-0.451-0.853-0.791-1.196c-0.341-0.344-0.746-0.616-1.194-0.803s-0.926-0.282-1.41-0.282-0.963 0.096-1.41 0.282c-0.447 0.186-0.852 0.459-1.193 0.803l-16.793 16.83z"></path>
     </symbol>
</defs>
</svg>
